# xmcd
#
# Track frame offsets:
#	150
#	15772
#	32545
#	46188
#	60723
#	80347
#	95806
#	114139
#	127466
#	140524
#	155278
#	173938
#	192398
#	207860
#	226223
#	243962
#	261016
#	277312
#	297816
#	313962
#
# Disc length: 4441 seconds
#
# Revision: 1
# Processed by: cddbd v1.5.2PL0 Copyright (c) Steve Scherf et al.
# Submitted via: audiograbber 1.83.01
#
DISCID=1b115714
DTITLE=Various Artist - Ultimate R&B 2010 [CD 1 of 2) (2010)
DYEAR=2010
DGENRE=R&B
TTITLE0=Rihanna - Te Amo (Album Version)
TTITLE1=B.O.B feat Bruno Mars - Nothin' On You (Radio Edit)
TTITLE2=Iyaz - Replay (Album Version)
TTITLE3=David Guetta feat Akon - Sexy Chick
TTITLE4=Jamie Foxx feat T-Pain - Blame It
TTITLE5=Ludacris - How Low (Album Version - Edited)
TTITLE6=Mark Ronson and The Business Intl - Bang Bang Bang
TTITLE7=NAS and Damian 'JR, Gong' Marley - As We Enter
TTITLE8=Bliss 'N' Eso - Down By The River
TTITLE9=Young Money feat Lloyd - Bedrock (Radio Edit)
TTITLE10=Lil Wayne - On Fire (Album Version - Edited)
TTITLE11=Nicki Minaj - Your Love
TTITLE12=Soulja Boy Tell 'Em - Turn My Swag On
TTITLE13=Fabolous feat Keri Hilson - Everything, Everyday, Everywhere (Album Ve
TTITLE13=rsion - Edited)
TTITLE14=Snoop Dogg - I Wanna Rock
TTITLE15=Rick Ross feat Ne-Yo - Super High (Single Version - Explicit)
TTITLE16=Asher Roth - G.R.I.N.D. (Get Ready It's A New Day) (Explicit Version)
TTITLE17=Robin Thicke - Sex Therapy
TTITLE18=Trey Songz - I Need A Girl (Album Version)
TTITLE19=Alicia Keys - No One
EXTD=
EXTT0=
EXTT1=
EXTT2=
EXTT3=
EXTT4=
EXTT5=
EXTT6=
EXTT7=
EXTT8=
EXTT9=
EXTT10=
EXTT11=
EXTT12=
EXTT13=
EXTT14=
EXTT15=
EXTT16=
EXTT17=
EXTT18=
EXTT19=
PLAYORDER=
